<svg version="1.1" viewBox="0.0 0.0 960.0 720.0" fill="none" stroke="none" stroke-linecap="square" stroke-miterlimit="10" xmlns:xlink="http://www.w3.org/1999/xlink" xmlns="http://www.w3.org/2000/svg"><clipPath id="p.0"><path d="m0 0l960.0 0l0 720.0l-960.0 0l0 -720.0z" clip-rule="nonzero"/></clipPath><g clip-path="url(#p.0)"><path fill="#000000" fill-opacity="0.0" d="m0 0l960.0 0l0 720.0l-960.0 0z" fill-rule="evenodd"/><path fill="#fb0000" d="m266.84253 373.12335l0 0c0 -86.1564 69.84357 -156.0 156.0 -156.0l0 0c41.37375 0 81.05298 16.435669 110.308655 45.691345c29.255676 29.255676 45.691345 68.934875 45.691345 110.308655l0 0c0 86.15643 -69.8436 156.0 -156.0 156.0l0 0c-86.15643 0 -156.0 -69.84357 -156.0 -156.0z" fill-rule="evenodd"/><path stroke="#000000" stroke-width="1.0" stroke-linejoin="round" stroke-linecap="butt" d="m266.84253 373.12335l0 0c0 -86.1564 69.84357 -156.0 156.0 -156.0l0 0c41.37375 0 81.05298 16.435669 110.308655 45.691345c29.255676 29.255676 45.691345 68.934875 45.691345 110.308655l0 0c0 86.15643 -69.8436 156.0 -156.0 156.0l0 0c-86.15643 0 -156.0 -69.84357 -156.0 -156.0z" fill-rule="evenodd"/><path fill="#000000" d="m425.06335 378.57462l0.234375 1.453125q-0.6875 0.140625 -1.234375 0.140625q-0.890625 0 -1.390625 -0.28125q-0.484375 -0.28125 -0.6875 -0.734375q-0.203125 -0.46875 -0.203125 -1.9375l0 -5.578125l-1.203125 0l0 -1.265625l1.203125 0l0 -2.390625l1.625 -0.984375l0 3.375l1.65625 0l0 1.265625l-1.65625 0l0 5.671875q0 0.6875 0.078125 0.890625q0.09375 0.203125 0.28125 0.328125q0.203125 0.109375 0.578125 0.109375q0.265625 0 0.71875 -0.0625z" fill-rule="nonzero"/><path fill="#ffffff" d="m285.45932 373.12335l0 0c0 -41.973633 34.026367 -76.0 76.0 -76.0l0 0c20.156464 0 39.487335 8.007141 53.740112 22.259888c14.252777 14.252777 22.259888 33.58368 22.259888 53.740112l0 0c0 41.973663 -34.026367 76.0 -76.0 76.0l0 0c-41.973633 0 -76.0 -34.026337 -76.0 -76.0z" fill-rule="evenodd"/><path stroke="#ffffff" stroke-width="24.0" stroke-linejoin="round" stroke-linecap="butt" d="m285.45932 373.12335l0 0c0 -41.973633 34.026367 -76.0 76.0 -76.0l0 0c20.156464 0 39.487335 8.007141 53.740112 22.259888c14.252777 14.252777 22.259888 33.58368 22.259888 53.740112l0 0c0 41.973663 -34.026367 76.0 -76.0 76.0l0 0c-41.973633 0 -76.0 -34.026337 -76.0 -76.0z" fill-rule="evenodd"/><path fill="#000000" fill-opacity="0.0" d="m337.04987 334.14435l237.66931 0l0 89.60632l-237.66931 0z" fill-rule="evenodd"/><path fill="#000000" d="m348.39362 352.87186l8.828125 0q8.53125 0 11.53125 0.78125q3.015625 0.78125 4.578125 2.578125q1.578125 1.78125 1.96875 3.984375q0.390625 2.1875 0.390625 8.640625l0 15.859375q0 6.109375 -0.578125 8.171875q-0.5625 2.046875 -2.0 3.21875q-1.421875 1.15625 -3.53125 1.625q-2.09375 0.453125 -6.3125 0.453125l-14.875 0l0 -45.3125zm11.796875 7.75l0 29.8125q2.546875 0 3.125 -1.015625q0.59375 -1.03125 0.59375 -5.5625l0 -17.609375q0 -3.078125 -0.203125 -3.9375q-0.1875 -0.875 -0.890625 -1.28125q-0.703125 -0.40625 -2.625 -0.40625zm40.249725 -7.75l6.75 45.3125l-12.0625 0l-0.59375 -8.140625l-4.234375 0l-0.6875 8.140625l-12.203125 0l5.984375 -45.3125l17.046875 0zm-6.25 29.140625q-0.890625 -7.703125 -1.78125 -19.015625q-1.796875 12.984375 -2.25 19.015625l4.03125 0zm26.799438 -29.140625l0 45.3125l-11.796875 0l0 -45.3125l11.796875 0zm41.093567 0l0 45.3125l-10.3125 0l0 -30.59375l-4.109375 30.59375l-7.3125 0l-4.328125 -29.890625l0 29.890625l-10.3125 0l0 -45.3125l15.265625 0q0.671875 4.078125 1.421875 9.625l1.625 11.53125l2.6875 -21.15625l15.375 0zm31.65512 26.53125q0 6.828125 -0.328125 9.671875q-0.3125 2.84375 -2.015625 5.203125q-1.6875 2.34375 -4.578125 3.609375q-2.875 1.25 -6.71875 1.25q-3.625 0 -6.53125 -1.1875q-2.890625 -1.1875 -4.65625 -3.5625q-1.765625 -2.390625 -2.109375 -5.1875q-0.328125 -2.796875 -0.328125 -9.796875l0 -7.75q0 -6.828125 0.3125 -9.671875q0.328125 -2.84375 2.015625 -5.1875q1.703125 -2.359375 4.578125 -3.609375q2.890625 -1.265625 6.71875 -1.265625q3.640625 0 6.53125 1.1875q2.90625 1.1875 4.671875 3.5625q1.765625 2.375 2.09375 5.1875q0.34375 2.796875 0.34375 9.796875l0 7.75zm-11.78125 -14.890625q0 -3.171875 -0.359375 -4.046875q-0.34375 -0.875 -1.4375 -0.875q-0.921875 0 -1.421875 0.71875q-0.484375 0.703125 -0.484375 4.203125l0 21.15625q0 3.953125 0.3125 4.875q0.328125 0.921875 1.515625 0.921875q1.203125 0 1.53125 -1.0625q0.34375 -1.0625 0.34375 -5.0625l0 -20.828125zm42.49518 -11.640625l0 45.3125l-10.34375 0l-6.1249695 -20.609375l0 20.609375l-9.859375 0l0 -45.3125l9.859375 0l6.6093445 20.40625l0 -20.40625l9.859375 0zm19.137207 0l0 30.28125q0 6.796875 -0.140625 8.75q-0.140625 1.9375 -1.28125 3.515625q-1.125 1.5625 -3.078125 2.171875q-1.9375 0.59375 -5.859375 0.59375l-5.90625 0l0 -7.921875q1.0625 0.078125 1.546875 0.078125q1.25 0 1.984375 -0.609375q0.734375 -0.609375 0.84375 -1.5q0.109375 -0.90625 0.109375 -3.484375l0 -31.875l11.78125 0zm16.353699 0l0 45.3125l-11.796875 0l0 -45.3125l11.796875 0z" fill-rule="nonzero"/><path fill="#000000" fill-opacity="0.0" d="m392.32547 407.39108l127.11807 0l0 41.73227l-127.11807 0z" fill-rule="evenodd"/><path fill="#000000" d="m410.2161 424.02982l-3.5625 0l0 -1.09375q0 -0.765625 -0.140625 -0.96875q-0.125 -0.21875 -0.453125 -0.21875q-0.34375 0 -0.53125 0.28125q-0.171875 0.28125 -0.171875 0.859375q0 0.734375 0.203125 1.109375q0.1875 0.375 1.078125 0.90625q2.5625 1.515625 3.234375 2.484375q0.65625 0.984375 0.65625 3.15625q0 1.5625 -0.375 2.3125q-0.359375 0.75 -1.421875 1.265625q-1.046875 0.5 -2.453125 0.5q-1.53125 0 -2.625 -0.578125q-1.09375 -0.59375 -1.4375 -1.484375q-0.328125 -0.90625 -0.328125 -2.5625l0 -0.96875l3.5625 0l0 1.796875q0 0.828125 0.140625 1.0625q0.15625 0.234375 0.546875 0.234375q0.375 0 0.5625 -0.296875q0.1875 -0.296875 0.1875 -0.890625q0 -1.3125 -0.359375 -1.703125q-0.359375 -0.40625 -1.78125 -1.34375q-1.4375 -0.953125 -1.90625 -1.375q-0.453125 -0.421875 -0.765625 -1.171875q-0.296875 -0.765625 -0.296875 -1.9375q0 -1.703125 0.421875 -2.484375q0.4375 -0.78125 1.40625 -1.21875q0.96875 -0.453125 2.328125 -0.453125q1.5 0 2.546875 0.484375q1.046875 0.484375 1.390625 1.21875q0.34375 0.734375 0.34375 2.484375l0 0.59375zm10.240692 -4.46875l0 9.859375q0 1.671875 -0.109375 2.359375q-0.109375 0.671875 -0.65625 1.390625q-0.53125 0.71875 -1.40625 1.09375q-0.875 0.359375 -2.078125 0.359375q-1.3125 0 -2.328125 -0.4375q-1.015625 -0.4375 -1.515625 -1.140625q-0.5 -0.703125 -0.59375 -1.484375q-0.09375 -0.78125 -0.09375 -3.265625l0 -8.734375l3.84375 0l0 11.0625q0 0.96875 0.09375 1.234375q0.109375 0.265625 0.4375 0.265625q0.359375 0 0.453125 -0.296875q0.109375 -0.296875 0.109375 -1.390625l0 -10.875l3.84375 0zm9.608887 4.46875l-3.5625 0l0 -1.09375q0 -0.765625 -0.140625 -0.96875q-0.125 -0.21875 -0.453125 -0.21875q-0.34375 0 -0.53125 0.28125q-0.171875 0.28125 -0.171875 0.859375q0 0.734375 0.203125 1.109375q0.1875 0.375 1.078125 0.90625q2.5625 1.515625 3.234375 2.484375q0.65625 0.984375 0.65625 3.15625q0 1.5625 -0.375 2.3125q-0.359375 0.75 -1.421875 1.265625q-1.046875 0.5 -2.453125 0.5q-1.53125 0 -2.625 -0.578125q-1.09375 -0.59375 -1.4375 -1.484375q-0.328125 -0.90625 -0.328125 -2.5625l0 -0.96875l3.5625 0l0 1.796875q0 0.828125 0.140625 1.0625q0.15625 0.234375 0.546875 0.234375q0.375 0 0.5625 -0.296875q0.1875 -0.296875 0.1875 -0.890625q0 -1.3125 -0.359375 -1.703125q-0.359375 -0.40625 -1.78125 -1.34375q-1.4375 -0.953125 -1.90625 -1.375q-0.453125 -0.421875 -0.765625 -1.171875q-0.296875 -0.765625 -0.296875 -1.9375q0 -1.703125 0.421875 -2.484375q0.4375 -0.78125 1.40625 -1.21875q0.96875 -0.453125 2.328125 -0.453125q1.5 0 2.546875 0.484375q1.046875 0.484375 1.390625 1.21875q0.34375 0.734375 0.34375 2.484375l0 0.59375zm10.334473 -4.46875l0 14.75l-3.828125 0l0 -6.1875l-1.15625 0l0 6.1875l-3.828125 0l0 -14.75l3.828125 0l0 5.28125l1.15625 0l0 -5.28125l3.828125 0zm5.373108 0l0 14.75l-3.828125 0l0 -14.75l3.828125 0zm14.569397 9.140625l0 2.5l-1.046875 0.65625l1.296875 2.453125l-3.40625 0l-0.4375 -0.8125q-1.71875 1.125 -3.25 1.125q-1.59375 0 -2.46875 -1.0625q-0.859375 -1.078125 -0.859375 -2.578125q0 -1.203125 0.5 -1.875q0.515625 -0.6875 1.546875 -1.125q-1.46875 -1.046875 -1.46875 -2.828125q0 -1.53125 1.03125 -2.46875q1.046875 -0.953125 2.875 -0.953125q1.640625 0 2.578125 0.921875q0.9375 0.921875 0.9375 2.34375q0 1.5 -1.140625 2.65625l1.296875 2.34375l2.015625 -1.296875zm-5.6875 -2.578125q0.625 -0.8125 0.625 -1.546875q0 -0.328125 -0.1875 -0.578125q-0.171875 -0.265625 -0.5 -0.265625q-0.296875 0 -0.453125 0.203125q-0.15625 0.1875 -0.15625 0.59375q0 0.859375 0.671875 1.59375zm0.828125 5.703125l-1.1875 -1.984375q-0.6875 0.609375 -0.6875 1.328125q0 0.53125 0.21875 0.796875q0.21875 0.25 0.640625 0.25q0.4375 0 1.015625 -0.390625zm17.959595 -6.828125l-3.828125 0l0 -1.34375q0 -1.265625 -0.109375 -1.578125q-0.109375 -0.328125 -0.53125 -0.328125q-0.34375 0 -0.484375 0.28125q-0.125 0.265625 -0.125 1.390625l0 7.078125q0 1.0 0.125 1.3125q0.140625 0.3125 0.515625 0.3125q0.421875 0 0.5625 -0.34375q0.15625 -0.359375 0.15625 -1.390625l0 -1.75l-0.765625 0l0 -2.25l4.484375 0l0 7.921875l-2.40625 0l-0.359375 -1.0625q-0.390625 0.6875 -1.0 1.03125q-0.59375 0.34375 -1.390625 0.34375q-0.96875 0 -1.8125 -0.46875q-0.84375 -0.46875 -1.28125 -1.15625q-0.4375 -0.703125 -0.546875 -1.453125q-0.109375 -0.765625 -0.109375 -2.296875l0 -4.375q0 -2.109375 0.21875 -3.0625q0.234375 -0.96875 1.3125 -1.765625q1.078125 -0.796875 2.796875 -0.796875q1.6875 0 2.796875 0.703125q1.109375 0.6875 1.4375 1.640625q0.34375 0.953125 0.34375 2.765625l0 0.640625zm1.4877625 -5.4375l2.71875 0q2.703125 0 3.65625 0.21875q0.96875 0.203125 1.578125 1.0625q0.609375 0.859375 0.609375 2.75q0 1.71875 -0.4375 2.3125q-0.421875 0.59375 -1.671875 0.703125q1.140625 0.28125 1.53125 0.765625q0.390625 0.46875 0.484375 0.875q0.09375 0.390625 0.09375 2.171875l0 3.890625l-3.5625 0l0 -4.90625q0 -1.171875 -0.1875 -1.453125q-0.1875 -0.296875 -0.984375 -0.296875l0 6.65625l-3.828125 0l0 -14.75zm3.828125 2.53125l0 3.265625q0.65625 0 0.90625 -0.171875q0.265625 -0.171875 0.265625 -1.15625l0 -0.8125q0 -0.6875 -0.25 -0.90625q-0.25 -0.21875 -0.921875 -0.21875zm10.04776 -2.53125l0 14.75l-3.828125 0l0 -14.75l3.828125 0zm5.3746033 0l0 11.796875l2.34375 0l0 2.953125l-6.171875 0l0 -14.75l3.828125 0zm7.0963135 0l0 11.796875l2.34375 0l0 2.953125l-6.171875 0l0 -14.75l3.828125 0z" fill-rule="nonzero"/><path fill="#000000" d="m313.7875 349.67288l7.8678284 -0.40283203l9.300079 181.63974l-7.867859 0.402771z" fill-rule="evenodd"/><path stroke="#000000" stroke-width="1.0" stroke-linejoin="round" stroke-linecap="butt" d="m313.7875 349.67288l7.8678284 -0.40283203l9.300079 181.63974l-7.867859 0.402771z" fill-rule="evenodd"/><path fill="#000000" d="m299.82562 349.27225l7.8667603 0.42355347l-9.77771 181.61462l-7.8667603 -0.42358398z" fill-rule="evenodd"/><path stroke="#000000" stroke-width="1.0" stroke-linejoin="round" stroke-linecap="butt" d="m299.82562 349.27225l7.8667603 0.42355347l-9.77771 181.61462l-7.8667603 -0.42358398z" fill-rule="evenodd"/></g></svg>